# xmcd CD database file
#
# Track frame offsets:
#	151
#	13640
#	28157
#	39946
#	54157
#	65359
#	77232
#	93423
#	110128
#	122903
#	136553
#	151905
#	165334
#	182931
#	198783
#	214642
#	231055
#	244393
#	257673
#	270953
#
# Disc length: 3747 seconds
#
# Revision: 0
# Processed by: cddbd v1.5.2PL0 Copyright (c) Steve Scherf et al.
# Submitted via: CDex 1.70beta2
#
DISCID=020ea114
DTITLE=Billie Holiday - Original Songs CD 1
DYEAR=1900
DGENRE=Jazz
TTITLE0=How deep is the ocean
TTITLE1=What a little moonlight can do
TTITLE2=Love me or leave me
TTITLE3=Willow weep for me
TTITLE4=I cried for you
TTITLE5=My man
TTITLE6=Lover come back to me
TTITLE7=Stormy weather
TTITLE8=Yesterdays
TTITLE9=Moonglow
TTITLE10=tenderly
TTITLE11=Love for sale
TTITLE12=Autumn in New York
TTITLE13=Blue moon
TTITLE14=Solitude
TTITLE15=These foolish things
TTITLE16=You go to my head
TTITLE17=I only have eyes for you
TTITLE18=East of the sun
TTITLE19=Too marvellous for words
EXTD=
EXTT0=
EXTT1=
EXTT2=
EXTT3=
EXTT4=
EXTT5=
EXTT6=
EXTT7=
EXTT8=
EXTT9=
EXTT10=
EXTT11=
EXTT12=
EXTT13=
EXTT14=
EXTT15=
EXTT16=
EXTT17=
EXTT18=
EXTT19=
PLAYORDER=
